<svg xmlns="http://www.w3.org/2000/svg" viewBox="0 0 1238 422.3" width="100">
  <style type="text/css">.st0{fill:#231F20;}</style>
  <path class="st0" d="M297.8 0.9C145.7 11.4 29.5 101.2 5.4 214.2c-17.4 81.6 3.2 149 114.4 141.3 6.2-0.5 44.3-6 87.8-27.1l-60.3 93.9c0.4 0.1 3.3-2.4 3.9-2.3 18.3-24.5 69.5-43.9 121-43.1 3.7-7.8 6.7-14.8 10.1-22.3l93.5-199.5c0 0-14.8 3-31.3 6.3 -56.2 10.8-116.3 11.3-151.1-11.1 31 45.4 78.7 54.4 78.7 54.4L230.5 278c-17.9 17.6-37.4 24.1-62.6 25.9 -56.6 3.9-84.4-36-73.2-88.7 20-94.1 132.7-189.3 207.8-194.5 43.7-3 42.2 5.1 40.2 14.6 -3.1 14.8-22.4 45.3-40.3 50.6C312.5 98 335.2 98.7 346.1 98c34.8-2.4 64.5-29.5 54-59.8C389.7 7.9 361.3-3.5 297.8 0.9z"></path> <path class="st0" d="M639.9 130.9l-67 138.6c-2 4.5-4 8.9-4.8 12.6 -2 8.8 1.5 14.9 21.4 13.6s50.9-25.4 73.7-39.5l16.9-1.1c-27.1 19.9-95.5 76.8-134.3 79.3 -33.8 2.2-54.3-6.8-53.5-29.8 -27.4 19.1-57.9 36.9-79.3 38.3 -38.3 2.5-59-9.6-52.2-39.7 1.4-6 3.9-12.9 7.7-20.7l64.8-134 73.8-9.2 -67 138.6c-2 4.5-4 8.9-4.8 12.6 -2 8.8 1.5 14.9 21.4 13.6 10.4-0.7 24.3-7.9 38.6-16.7 1.4-4 3.4-8.5 6-13.4l67-138.6L639.9 130.9z"></path> <path class="st0" d="M784 119.9l-65.4 135.4c-2 4.4-3.9 8.8-4.7 12.3 -2 8.6 1.5 14.6 20.9 13.3 19.4-1.3 49.7-24.8 72-38.6l16.5-1.1c-26.5 19.4-93.3 75-131.2 77.5 -37.4 2.4-57.7-9.4-51-38.8 1.3-5.9 3.8-12.6 7.5-20.2L714 124.4 784 119.9zM780.6 38.3C802 37 816.2 50 812.3 67.2s-24.6 32-45.9 33.4c-21.4 1.4-35.2-11.2-31.3-28.5C739 54.9 759.2 39.7 780.6 38.3z"></path> <path class="st0" d="M1071.5 28.3l-97.1 201.3c-1.8 4.1-4.1 8.2-5 11.9 -1.9 8.1 1.9 13.2 19.6 12.1 18.2-1.2 46.5-23.2 67.4-36.1l15.5-1c-24.8 18.2-87.3 70.3-122.8 72.5 -29.6 1.9-47.1-5.6-48.7-24.3 -17.1 15.9-41 32.2-68.7 34 -43.7 2.8-50.7-21.3-45.7-42.9 14.4-63 59.9-140.4 150.8-146.2 10.9-0.7 21.5 2.2 28.4 7.2l37.3-76.8L1071.5 28.3zM849.6 241.9c-5 22 9.1 25.1 20.4 24.3 10.5-0.7 22.3-9.4 33.3-20.2 1.3-3.7 3.1-7.8 5.5-12.3l47.7-98.8c-6.1-4.7-14.4-5.6-20.8-5.2C901.7 132 861 192.1 849.6 241.9z"></path> <path class="st0" d="M1238 122.2c0 0-24.4 36.2-42.4 45.2 -19.9 68.3-75.5 105.9-113.6 108.4 -43.3 2.8-60.2-11-51.3-50.1 18.2-80.2 77.3-119 132.8-122.6 19.5-1.3 36.7 3.8 34.7 12.3 -2.2 9.5-12.8 14.1-21.8 17 -1.7-6.7-6.4-10.6-15.7-10 -39.7 2.6-69.5 70.5-75.5 96.8 -4.5 19.7 6.5 24.2 22.7 23.1 23.9-1.5 46.2-37.9 57.1-68.4 -7.8-0.8-9.9-5.9-8.3-12.8 2.6-11.5 19.8-25.9 32.8-26.7 7.7-0.5 13.3 1.1 11.8 8 -0.2 1-0.5 2-1.1 3C1211.9 139.5 1226.8 131.1 1238 122.2z"></path> <path class="st0" d="M1073.5 310.1c-36.8 14.1-66.7 45.5-87.6 80.9 -1.1 0.9-2.3 1.7-3.5 2.5 -102.9-35.8-502.4-9.4-654-16.7 199.4-7.1 474.2-43.1 659.6-62.1 0.4-0.1 0.8-0.1 1.1-0.1C1016.7 312.6 1044.8 311 1073.5 310.1z"></path> <path class="st0" d="M990.1 314.4c-0.2 0-0.5 0.1-1 0.2 -0.3 0-0.7 0-1.1 0.1 -4.3 0.3-8.6 0.6-12.8 0.9C982.9 314.9 989.1 314.4 990.1 314.4z"></path>
</svg>
